<svg width="240px" height="40px" xmlns="http://www.w3.org/2000/svg" viewBox="-43.47187500000001 14 586.94375 122" style="background: rgba(0, 0, 0, 0);" preserveAspectRatio="xMidYMid"><defs><filter id="editing-extrude-glow"><feFlood flood-color="#333333" result="flood-1"></feFlood><feMorphology operator="erode" radius="1" in="SourceAlpha" result="erode"></feMorphology><feComposite operator="in" in="flood-1" in2="erode" result="comp1"></feComposite><feConvolveMatrix order="3,3" divisor="1" in="comp1" result="convolve" kernelMatrix="0 0 0 1 1 1 0 0 0"></feConvolveMatrix><feOffset dx="-3" dy="0" in="convolve" result="extrude"></feOffset><feComposite operator="in" in="flood-1" in2="extrude" result="comp-extrude"></feComposite><feFlood flood-color="#000000" result="flood-2"></feFlood><feComposite operator="in" in="flood-2" in2="SourceAlpha" result="comp2"></feComposite><feMorphology operator="dilate" radius="1" in="comp2" result="dilate"></feMorphology><feOffset dx="-4.5" dy="0" in="dilate" result="offset"></feOffset><feGaussianBlur in="offset" stdDeviation="5.8" result="blur"></feGaussianBlur><feComponentTransfer in="blur" result="shadow"><feFuncA type="linear" slope="0.8" intercept="-0.2"></feFuncA></feComponentTransfer><feMerge><feMergeNode in="shadow"></feMergeNode><feMergeNode in="comp-extrude"></feMergeNode><feMergeNode in="SourceGraphic"></feMergeNode></feMerge></filter></defs><g filter="url(#editing-extrude-glow)"><g transform="translate(42.133816838264465, 104.79000282287598)"><path d="M26.05-29.57L26.05-29.57L26.05-29.57Q27.01-31.49 27.01-33.28L27.01-33.28L27.01-33.28Q27.01-35.07 26.82-36.06L26.82-36.06L26.82-36.06Q26.62-37.06 26.18-37.82L26.18-37.82L26.18-37.82Q25.22-39.49 23.30-39.49L23.30-39.49L23.30-39.49Q20.93-39.49 19.01-37.76L19.01-37.76L19.01-37.76Q16.96-35.97 16.96-33.15L16.96-33.15L16.96-33.15Q16.96-31.36 18.21-29.98L18.21-29.98L18.21-29.98Q19.46-28.61 21.38-27.33L21.38-27.33L21.38-27.33Q23.30-26.05 25.47-24.77L25.47-24.77L25.47-24.77Q27.65-23.49 29.57-21.95L29.57-21.95L29.57-21.95Q33.98-18.43 33.98-13.70L33.98-13.70L33.98-13.70Q33.98-10.50 32.29-7.78L32.29-7.78L32.29-7.78Q30.59-5.06 27.78-3.07L27.78-3.07L27.78-3.07Q21.63 1.28 13.50 1.28L13.50 1.28L13.50 1.28Q6.91 1.28 3.52-0.86L3.52-0.86L3.52-0.86Q0.13-3.01 0.13-6.27L0.13-6.27L0.13-6.27Q0.13-12.10 4.67-13.57L4.67-13.57L4.67-13.57Q5.95-14.02 7.90-14.02L7.90-14.02L7.90-14.02Q9.86-14.02 12.10-13.18L12.10-13.18L12.10-13.18Q11.07-10.56 11.07-8.19L11.07-8.19L11.07-8.19Q11.07-3.07 14.72-3.07L14.72-3.07L14.72-3.07Q17.09-3.07 19.04-4.80L19.04-4.80L19.04-4.80Q20.99-6.53 20.99-8.48L20.99-8.48L20.99-8.48Q20.99-10.43 19.74-11.84L19.74-11.84L19.74-11.84Q18.50-13.25 16.64-14.37L16.64-14.37L16.64-14.37Q14.78-15.49 12.64-16.58L12.64-16.58L12.64-16.58Q10.50-17.66 8.64-19.20L8.64-19.20L8.64-19.20Q4.29-22.72 4.29-28.35L4.29-28.35L4.29-28.35Q4.29-32 6.08-34.85L6.08-34.85L6.08-34.85Q7.87-37.70 10.75-39.62L10.75-39.62L10.75-39.62Q16.51-43.52 23.58-43.52L23.58-43.52L23.58-43.52Q30.66-43.52 34.08-41.41L34.08-41.41L34.08-41.41Q37.50-39.30 37.50-35.71L37.50-35.71L37.50-35.71Q37.50-32.58 35.07-30.59L35.07-30.59L35.07-30.59Q32.96-28.93 30.40-28.93L30.40-28.93L30.40-28.93Q27.84-28.93 26.05-29.57ZM52.80 1.28L52.80 1.28L52.80 1.28Q38.72 1.28 38.72-11.97L38.72-11.97L38.72-11.97Q38.72-21.38 43.90-27.46L43.90-27.46L43.90-27.46Q49.41-33.92 58.94-33.92L58.94-33.92L58.94-33.92Q65.86-33.92 69.38-30.72L69.38-30.72L69.38-30.72Q72.90-27.52 72.90-20.80L72.90-20.80L72.90-20.80Q72.90-10.56 67.39-4.61L67.39-4.61L67.39-4.61Q62.02 1.28 52.80 1.28ZM54.46-26.56L54.46-26.56L54.46-26.56Q53.70-24.83 53.09-22.24L53.09-22.24L53.09-22.24Q52.48-19.65 51.71-15.55L51.71-15.55L51.71-15.55Q50.94-11.46 50.94-6.40L50.94-6.40L50.94-6.40Q50.94-4.74 51.49-3.65L51.49-3.65L51.49-3.65Q52.03-2.56 53.50-2.56L53.50-2.56L53.50-2.56Q54.98-2.56 55.90-3.26L55.90-3.26L55.90-3.26Q56.83-3.97 57.54-5.63L57.54-5.63L57.54-5.63Q58.82-8.58 59.84-14.05L59.84-14.05L59.84-14.05Q60.86-19.52 60.96-21.89L60.96-21.89L60.96-21.89Q61.06-24.26 61.06-26.02L61.06-26.02L61.06-26.02Q61.06-27.78 60.54-28.93L60.54-28.93L60.54-28.93Q60.03-30.08 58.59-30.08L58.59-30.08L58.59-30.08Q57.15-30.08 56.19-29.18L56.19-29.18L56.19-29.18Q55.23-28.29 54.46-26.56ZM96.83-33.92L96.83-33.92L96.83-33.92Q99.14-33.92 100.93-33.41L100.93-33.41L100.93-33.41Q100.99-33.66 101.12-34.37L101.12-34.37L101.44-36.35L101.44-36.35Q101.70-37.63 102.08-39.74L102.08-39.74L103.10-44.80L115.84-46.08L108.74-8.96L108.74-8.96Q108.67-8.58 108.67-7.94L108.67-7.94L108.67-6.91L108.67-6.91Q108.67-5.50 109.38-4.45L109.38-4.45L109.38-4.45Q110.08-3.39 111.23-3.39L111.23-3.39L111.23-3.39Q109.95-0.38 106.05 0.90L106.05 0.90L106.05 0.90Q104.70 1.28 102.82 1.28L102.82 1.28L102.82 1.28Q100.93 1.28 99.20 0.29L99.20 0.29L99.20 0.29Q97.47-0.70 96.96-2.37L96.96-2.37L96.96-2.37Q95.94-0.70 93.89 0.29L93.89 0.29L93.89 0.29Q91.84 1.28 88.86 1.28L88.86 1.28L88.86 1.28Q85.89 1.28 83.42 0.51L83.42 0.51L83.42 0.51Q80.96-0.26 79.42-1.92L79.42-1.92L79.42-1.92Q76.61-5.18 76.61-12.61L76.61-12.61L76.61-12.61Q76.61-22.21 82.24-28.03L82.24-28.03L82.24-28.03Q87.87-33.92 96.83-33.92ZM96.38-30.08L96.38-30.08L96.38-30.08Q94.02-30.08 92.74-27.52L92.74-27.52L92.74-27.52Q91.46-24.96 90.14-18.62L90.14-18.62L90.14-18.62Q88.83-12.29 88.83-6.59L88.83-6.59L88.83-6.59Q88.83-2.69 91.14-2.69L91.14-2.69L91.14-2.69Q93.18-2.69 94.62-4.74L94.62-4.74L94.62-4.74Q96.06-6.78 96.64-10.18L96.64-10.18L100.10-28.93L100.10-28.93Q98.75-30.08 96.38-30.08ZM119.46-1.92L119.46-1.92L119.46-1.92Q117.95-3.58 117.28-6.21L117.28-6.21L117.28-6.21Q116.61-8.83 116.61-13.12L116.61-13.12L116.61-13.12Q116.61-17.41 118.08-21.31L118.08-21.31L118.08-21.31Q119.55-25.22 122.24-28.03L122.24-28.03L122.24-28.03Q127.74-33.92 136.83-33.92L136.83-33.92L136.83-33.92Q140.10-33.92 142.46-32.83L142.46-32.83L153.41-33.92L148.67-8.96L148.67-8.96Q148.48-8.19 148.48-6.78L148.48-6.78L148.48-6.78Q148.48-5.38 149.34-4.48L149.34-4.48L149.34-4.48Q150.21-3.58 151.49-3.46L151.49-3.46L151.49-3.46Q150.85-1.28 148.51 0L148.51 0L148.51 0Q146.18 1.28 143.55 1.28L143.55 1.28L143.55 1.28Q140.93 1.28 139.17 0.29L139.17 0.29L139.17 0.29Q137.41-0.70 136.90-2.37L136.90-2.37L136.90-2.37Q135.87-0.77 133.70 0.26L133.70 0.26L133.70 0.26Q131.52 1.28 128.61 1.28L128.61 1.28L128.61 1.28Q125.70 1.28 123.33 0.51L123.33 0.51L123.33 0.51Q120.96-0.26 119.46-1.92ZM132.96-27.90L132.96-27.90L132.96-27.90Q132.22-26.75 131.58-24.80L131.58-24.80L131.58-24.80Q130.94-22.85 129.89-17.63L129.89-17.63L129.89-17.63Q128.83-12.42 128.83-8.70L128.83-8.70L128.83-8.70Q128.83-4.99 129.41-3.90L129.41-3.90L129.41-3.90Q129.98-2.82 131.01-2.82L131.01-2.82L131.01-2.82Q133.06-2.82 134.56-4.77L134.56-4.77L134.56-4.77Q136.06-6.72 136.64-10.18L136.64-10.18L140.03-28.93L140.03-28.93Q138.69-30.08 137.12-30.08L137.12-30.08L137.12-30.08Q135.55-30.08 134.62-29.57L134.62-29.57L134.62-29.57Q133.70-29.06 132.96-27.90ZM172.16-3.52L172.16-3.52L172.16-3.52Q170.18 1.28 163.84 1.28L163.84 1.28L163.84 1.28Q160.64 1.28 158.59-0.96L158.59-0.96L158.59-0.96Q156.93-2.82 156.93-4.93L156.93-4.93L156.93-4.93Q156.93-9.73 159.17-20.22L159.17-20.22L163.84-44.80L176.83-46.08L170.62-13.70L170.62-13.70Q169.54-8.96 169.54-7.30L169.54-7.30L169.54-7.30Q169.54-3.65 172.16-3.52ZM192.96-3.52L192.96-3.52L192.96-3.52Q190.98 1.28 184.64 1.28L184.64 1.28L184.64 1.28Q181.38 1.28 179.33-0.96L179.33-0.96L179.33-0.96Q177.60-2.94 177.60-4.93L177.60-4.93L177.60-4.93Q177.60-10.11 179.97-20.22L179.97-20.22L182.34-32.64L195.33-33.92L191.42-13.70L191.42-13.70Q190.34-8.96 190.34-7.30L190.34-7.30L190.34-7.30Q190.34-3.65 192.96-3.52ZM183.49-41.54L183.49-41.54L183.49-41.54Q183.49-44.03 185.57-45.38L185.57-45.38L185.57-45.38Q187.65-46.72 190.66-46.72L190.66-46.72L190.66-46.72Q193.66-46.72 195.49-45.38L195.49-45.38L195.49-45.38Q197.31-44.03 197.31-41.54L197.31-41.54L197.31-41.54Q197.31-39.04 195.30-37.76L195.30-37.76L195.30-37.76Q193.28-36.48 190.27-36.48L190.27-36.48L190.27-36.48Q187.26-36.48 185.38-37.76L185.38-37.76L185.38-37.76Q183.49-39.04 183.49-41.54ZM199.42-6.40L199.42-6.40L199.42-6.40Q199.42-8.13 200.32-12.48L200.32-12.48L203.71-29.76L199.94-29.76L200.19-31.68L200.19-31.68Q207.87-33.98 215.30-39.62L215.30-39.62L218.37-39.62L216.83-32.64L221.82-32.64L221.25-29.76L216.32-29.76L213.06-12.48L213.06-12.48Q212.22-8.51 212.22-7.17L212.22-7.17L212.22-7.17Q212.22-4.10 214.91-3.46L214.91-3.46L214.91-3.46Q214.27-1.28 211.97 0L211.97 0L211.97 0Q209.66 1.28 206.40 1.28L206.40 1.28L206.40 1.28Q203.14 1.28 201.28-0.77L201.28-0.77L201.28-0.77Q199.42-2.82 199.42-6.40ZM241.86-7.23L241.86-7.23L241.86-7.23Q238.53-3.78 232.45-3.78L232.45-3.78L232.45-3.78Q224.83-3.78 223.23-9.34L223.23-9.34L223.23-9.34Q222.72-11.01 222.72-12.86L222.72-12.86L222.72-12.86Q222.72-14.72 223.10-16.64L223.10-16.64L226.11-32.64L239.10-33.92L235.58-15.30L235.58-15.30Q235.46-14.46 235.26-13.57L235.26-13.57L235.26-13.57Q235.07-12.67 235.07-11.74L235.07-11.74L235.07-11.74Q235.07-10.82 235.39-10.21L235.39-10.21L235.39-10.21Q235.71-9.60 236.16-9.22L236.16-9.22L236.16-9.22Q236.93-8.70 238.30-8.70L238.30-8.70L238.30-8.70Q239.68-8.70 240.86-10.37L240.86-10.37L240.86-10.37Q242.05-12.03 242.62-14.91L242.62-14.91L246.14-32.64L258.75-33.92L253.95-8.77L253.95-8.77Q251.58 3.52 246.72 8.38L246.72 8.38L246.72 8.38Q244.22 10.88 240.99 11.87L240.99 11.87L240.99 11.87Q237.76 12.86 233.60 12.86L233.60 12.86L233.60 12.86Q226.88 12.86 223.04 10.75L223.04 10.75L223.04 10.75Q219.20 8.64 219.20 5.12L219.20 5.12L219.20 5.12Q219.20 2.50 221.18 0.99L221.18 0.99L221.18 0.99Q223.17-0.51 226.24-0.51L226.24-0.51L226.24-0.51Q228.93-0.51 230.98 0.64L230.98 0.64L230.98 0.64Q232.19 1.34 232.77 2.24L232.77 2.24L232.77 2.24Q231.30 3.52 231.30 5.63L231.30 5.63L231.30 5.63Q231.30 8.45 233.86 8.45L233.86 8.45L233.86 8.45Q238.08 8.45 240.51-1.28L240.51-1.28L240.51-1.28Q241.22-4.16 241.86-7.23ZM300.99-9.86L300.99-9.86L300.99-9.86Q302.21-8.32 302.21-5.34L302.21-5.34L302.21-5.34Q302.21-2.37 299.94-0.54L299.94-0.54L299.94-0.54Q297.66 1.28 293.70 1.28L293.70 1.28L293.70 1.28Q291.39 1.28 287.81 0.77L287.81 0.77L287.81 0.77Q280.77-0.32 278.75-0.32L278.75-0.32L278.75-0.32Q276.74-0.32 275.90-0.22L275.90-0.22L275.90-0.22Q275.07-0.13 273.73 0L273.73 0L281.47-42.24L295.49-42.24L289.09-7.04L289.09-7.04Q289.92-6.91 290.69-6.91L290.69-6.91L292.29-6.91L292.29-6.91Q297.66-6.91 300.99-9.86ZM309.28-1.92L309.28-1.92L309.28-1.92Q307.78-3.58 307.10-6.21L307.10-6.21L307.10-6.21Q306.43-8.83 306.43-13.12L306.43-13.12L306.43-13.12Q306.43-17.41 307.90-21.31L307.90-21.31L307.90-21.31Q309.38-25.22 312.06-28.03L312.06-28.03L312.06-28.03Q317.57-33.92 326.66-33.92L326.66-33.92L326.66-33.92Q329.92-33.92 332.29-32.83L332.29-32.83L343.23-33.92L338.50-8.96L338.50-8.96Q338.30-8.19 338.30-6.78L338.30-6.78L338.30-6.78Q338.30-5.38 339.17-4.48L339.17-4.48L339.17-4.48Q340.03-3.58 341.31-3.46L341.31-3.46L341.31-3.46Q340.67-1.28 338.34 0L338.34 0L338.34 0Q336 1.28 333.38 1.28L333.38 1.28L333.38 1.28Q330.75 1.28 328.99 0.29L328.99 0.29L328.99 0.29Q327.23-0.70 326.72-2.37L326.72-2.37L326.72-2.37Q325.70-0.77 323.52 0.26L323.52 0.26L323.52 0.26Q321.34 1.28 318.43 1.28L318.43 1.28L318.43 1.28Q315.52 1.28 313.15 0.51L313.15 0.51L313.15 0.51Q310.78-0.26 309.28-1.92ZM322.78-27.90L322.78-27.90L322.78-27.90Q322.05-26.75 321.41-24.80L321.41-24.80L321.41-24.80Q320.77-22.85 319.71-17.63L319.71-17.63L319.71-17.63Q318.66-12.42 318.66-8.70L318.66-8.70L318.66-8.70Q318.66-4.99 319.23-3.90L319.23-3.90L319.23-3.90Q319.81-2.82 320.83-2.82L320.83-2.82L320.83-2.82Q322.88-2.82 324.38-4.77L324.38-4.77L324.38-4.77Q325.89-6.72 326.46-10.18L326.46-10.18L329.86-28.93L329.86-28.93Q328.51-30.08 326.94-30.08L326.94-30.08L326.94-30.08Q325.38-30.08 324.45-29.57L324.45-29.57L324.45-29.57Q323.52-29.06 322.78-27.90ZM345.86-3.07L345.86-3.07L353.79-44.80L366.78-46.08L364.80-36.29L364.80-36.29Q364.10-33.28 363.20-31.17L363.20-31.17L363.20-31.17Q364.61-32.96 367.68-33.66L367.68-33.66L367.68-33.66Q368.58-33.92 369.66-33.92L369.66-33.92L369.66-33.92Q375.62-33.92 378.88-30.30L378.88-30.30L378.88-30.30Q382.14-26.69 382.14-19.71L382.14-19.71L382.14-19.71Q382.14-10.62 376.96-4.93L376.96-4.93L376.96-4.93Q371.39 1.28 361.28 1.28L361.28 1.28L361.28 1.28Q354.30 1.28 349.06-1.02L349.06-1.02L349.06-1.02Q347.20-1.86 345.86-3.07ZM362.11-22.40L358.72-3.65L358.72-3.65Q360.06-2.50 361.73-2.50L361.73-2.50L361.73-2.50Q363.39-2.50 364.35-3.14L364.35-3.14L364.35-3.14Q365.31-3.78 366.02-5.06L366.02-5.06L366.02-5.06Q367.94-8.51 369.47-19.07L369.47-19.07L369.47-19.07Q369.92-22.08 369.92-25.09L369.92-25.09L369.92-25.09Q369.92-28.10 369.25-29.06L369.25-29.06L369.25-29.06Q368.58-30.02 367.30-30.02L367.30-30.02L367.30-30.02Q363.39-30.02 362.11-22.40L362.11-22.40ZM405.12-22.46L405.12-22.46L405.12-22.46Q406.02-24.83 406.02-26.88L406.02-26.88L406.02-26.88Q406.02-30.66 402.94-30.66L402.94-30.66L402.94-30.66Q401.34-30.66 400.03-29.22L400.03-29.22L400.03-29.22Q398.72-27.78 398.72-25.98L398.72-25.98L398.72-25.98Q398.72-24.70 399.74-23.68L399.74-23.68L399.74-23.68Q401.22-22.27 404.99-19.97L404.99-19.97L404.99-19.97Q408.77-17.66 410.21-15.78L410.21-15.78L410.21-15.78Q411.65-13.89 411.65-11.30L411.65-11.30L411.65-11.30Q411.65-8.70 410.40-6.34L410.40-6.34L410.40-6.34Q409.15-3.97 406.91-2.30L406.91-2.30L406.91-2.30Q402.11 1.28 394.43 1.28L394.43 1.28L394.43 1.28Q390.27 1.28 387.07-0.90L387.07-0.90L387.07-0.90Q383.87-3.01 383.87-5.50L383.87-5.50L383.87-5.50Q383.87-8 385.70-9.47L385.70-9.47L385.70-9.47Q387.52-10.94 390.21-10.94L390.21-10.94L390.21-10.94Q392.90-10.94 394.56-9.92L394.56-9.92L394.56-9.92Q393.73-7.81 393.73-6.40L393.73-6.40L393.73-6.40Q393.73-2.18 397.31-2.18L397.31-2.18L397.31-2.18Q398.85-2.18 399.87-3.14L399.87-3.14L399.87-3.14Q400.90-4.10 400.90-5.76L400.90-5.76L400.90-5.76Q400.90-9.02 395.39-12.48L395.39-12.48L395.39-12.48Q390.91-15.42 389.89-16.58L389.89-16.58L389.89-16.58Q388.16-18.62 388.16-21.18L388.16-21.18L388.16-21.18Q388.16-23.74 389.38-26.18L389.38-26.18L389.38-26.18Q390.59-28.61 392.83-30.34L392.83-30.34L392.83-30.34Q397.50-33.92 405.63-33.92L405.63-33.92L405.63-33.92Q409.79-33.92 412.26-32.26L412.26-32.26L412.26-32.26Q414.72-30.59 414.72-27.78L414.72-27.78L414.72-27.78Q414.72-24.96 413.02-23.36L413.02-23.36L413.02-23.36Q411.33-21.76 408.26-21.76L408.26-21.76L408.26-21.76Q406.14-21.76 405.12-22.46Z" fill="#eb6c6c"></path></g></g><style>text {
  font-size: 64px;
  font-family: Arial Black;
  dominant-baseline: central;
  text-anchor: middle;
}</style></svg>